<svg xmlns="http://www.w3.org/2000/svg" xmlns:xlink="http://www.w3.org/1999/xlink" viewBox="0 0 737.7777777777778 347.55555555555554" width="737.7777777777778" height="347.55555555555554"><path d="M 379.000,79.431 C 374.500,81.431 373.915,80.494 370.000,83.431" stroke-width="5.572" stroke="black" fill="none" stroke-linecap="round"></path><path d="M 370.000,83.431 C 353.915,95.494 353.731,95.639 339.000,109.431" stroke-width="2.029" stroke="black" fill="none" stroke-linecap="round"></path><path d="M 339.000,109.431 C 330.231,117.639 330.908,118.351 323.000,127.431" stroke-width="2.369" stroke="black" fill="none" stroke-linecap="round"></path><path d="M 323.000,127.431 C 317.408,133.851 315.533,133.365 312.000,140.431" stroke-width="2.841" stroke="black" fill="none" stroke-linecap="round"></path><path d="M 312.000,140.431 C 310.533,143.365 311.297,144.876 313.000,147.431" stroke-width="4.064" stroke="black" fill="none" stroke-linecap="round"></path><path d="M 313.000,147.431 C 314.297,149.376 315.349,149.125 318.000,149.431" stroke-width="4.164" stroke="black" fill="none" stroke-linecap="round"></path><path d="M 318.000,149.431 C 328.349,150.625 328.733,151.980 339.000,150.431" stroke-width="2.854" stroke="black" fill="none" stroke-linecap="round"></path><path d="M 339.000,150.431 C 355.233,147.980 354.970,145.822 371.000,141.431" stroke-width="2.115" stroke="black" fill="none" stroke-linecap="round"></path><path d="M 371.000,141.431 C 391.470,135.822 391.200,134.212 412.000,130.431" stroke-width="1.733" stroke="black" fill="none" stroke-linecap="round"></path><path d="M 412.000,130.431 C 429.700,127.212 429.991,128.717 448.000,127.431" stroke-width="1.779" stroke="black" fill="none" stroke-linecap="round"></path><path d="M 448.000,127.431 C 450.991,127.217 452.108,126.079 454.000,127.431" stroke-width="2.944" stroke="black" fill="none" stroke-linecap="round"></path><path d="M 454.000,127.431 C 455.608,128.579 456.418,130.511 455.000,132.431" stroke-width="4.183" stroke="black" fill="none" stroke-linecap="round"></path><path d="M 455.000,132.431 C 447.918,142.011 446.385,141.845 437.000,150.431" stroke-width="2.537" stroke="black" fill="none" stroke-linecap="round"></path><path d="M 437.000,150.431 C 422.885,163.345 423.035,163.594 408.000,175.431" stroke-width="1.971" stroke="black" fill="none" stroke-linecap="round"></path><path d="M 408.000,175.431 C 376.035,200.594 375.787,200.334 343.000,224.431" stroke-width="1.125" stroke="black" fill="none" stroke-linecap="round"></path><path d="M 343.000,224.431 C 334.287,230.834 334.160,230.706 325.000,236.431" stroke-width="1.799" stroke="black" fill="none" stroke-linecap="round"></path><path d="M 325.000,236.431 C 322.160,238.206 319.573,239.431 319.000,239.431" stroke-width="2.913" stroke="black" fill="none" stroke-linecap="round"></path><path d="M 319.000,239.431 C 318.573,239.431 320.922,237.816 323.000,236.431" stroke-width="4.328" stroke="black" fill="none" stroke-linecap="round"></path><path d="M 323.000,236.431 C 326.922,233.816 327.117,234.100 331.000,231.431" stroke-width="4.380" stroke="black" fill="none" stroke-linecap="round"></path><path d="M 331.000,231.431 C 335.117,228.600 334.871,228.246 339.000,225.431" stroke-width="4.085" stroke="black" fill="none" stroke-linecap="round"></path><path d="M 339.000,225.431 C 345.871,220.746 346.013,220.951 353.000,216.431" stroke-width="3.259" stroke="black" fill="none" stroke-linecap="round"></path><path d="M 353.000,216.431 C 363.013,209.951 362.978,209.896 373.000,203.431" stroke-width="2.487" stroke="black" fill="none" stroke-linecap="round"></path><path d="M 373.000,203.431 C 378.478,199.896 378.725,200.255 384.000,196.431" stroke-width="2.937" stroke="black" fill="none" stroke-linecap="round"></path><path d="M 384.000,196.431 C 398.725,185.755 398.441,185.350 413.000,174.431" stroke-width="2.028" stroke="black" fill="none" stroke-linecap="round"></path><path d="M 413.000,174.431 C 416.441,171.850 416.387,171.753 420.000,169.431" stroke-width="3.014" stroke="black" fill="none" stroke-linecap="round"></path><path d="M 420.000,169.431 C 423.387,167.253 423.605,167.591 427.000,165.431" stroke-width="3.488" stroke="black" fill="none" stroke-linecap="round"></path><path d="M 427.000,165.431 C 429.105,164.091 429.000,163.931 431.000,162.431" stroke-width="4.011" stroke="black" fill="none" stroke-linecap="round"></path><path d="M 431.000,162.431 C 433.000,160.931 433.362,161.273 435.000,159.431" stroke-width="4.795" stroke="black" fill="none" stroke-linecap="round"></path><path d="M 435.000,159.431 C 437.362,156.773 436.758,156.233 439.000,153.431" stroke-width="4.686" stroke="black" fill="none" stroke-linecap="round"></path><path d="M 439.000,153.431 C 440.758,151.233 441.399,151.718 443.000,149.431" stroke-width="4.302" stroke="black" fill="none" stroke-linecap="round"></path><path d="M 443.000,149.431 C 444.899,146.718 444.053,146.108 446.000,143.431" stroke-width="4.059" stroke="black" fill="none" stroke-linecap="round"></path><path d="M 446.000,143.431 C 448.053,140.608 448.722,141.123 451.000,138.431" stroke-width="3.998" stroke="black" fill="none" stroke-linecap="round"></path><path d="M 451.000,138.431 C 454.222,134.623 454.000,134.431 457.000,130.431" stroke-width="4.236" stroke="black" fill="none" stroke-linecap="round"></path><path d="M 457.000,130.431 C 458.500,128.431 458.250,128.181 460.000,126.431" stroke-width="5.033" stroke="black" fill="none" stroke-linecap="round"></path><path d="M 460.000,126.431 C 461.750,124.681 462.556,125.356 464.000,123.431" stroke-width="5.300" stroke="black" fill="none" stroke-linecap="round"></path><path d="M 464.000,123.431 C 465.556,121.356 465.230,120.999 466.000,118.431" stroke-width="5.234" stroke="black" fill="none" stroke-linecap="round"></path><path d="M 466.000,118.431 C 466.730,115.999 467.890,115.567 467.000,113.431" stroke-width="5.399" stroke="black" fill="none" stroke-linecap="round"></path><path d="M 467.000,113.431 C 465.390,109.567 464.559,109.100 461.000,106.431" stroke-width="4.927" stroke="black" fill="none" stroke-linecap="round"></path><path d="M 461.000,106.431 C 458.559,104.600 458.072,104.989 455.000,104.431" stroke-width="4.981" stroke="black" fill="none" stroke-linecap="round"></path><path d="M 455.000,104.431 C 452.572,103.989 451.321,102.921 450.000,104.431" stroke-width="5.152" stroke="black" fill="none" stroke-linecap="round"></path><path d="M 450.000,104.431 C 447.821,106.921 448.000,108.431 448.000,112.431" stroke-width="4.678" stroke="black" fill="none" stroke-linecap="round"></path><path d="M 448.000,112.431 C 448.000,116.431 448.132,118.874 450.000,120.431" stroke-width="4.552" stroke="black" fill="none" stroke-linecap="round"></path><path d="M 450.000,120.431 C 451.132,121.374 452.762,119.411 454.000,117.431" stroke-width="5.153" stroke="black" fill="none" stroke-linecap="round"></path><path d="M 454.000,117.431 C 455.262,115.411 453.468,111.792 455.000,112.431" stroke-width="4.967" stroke="black" fill="none" stroke-linecap="round"></path><path d="M 455.000,112.431 C 459.468,114.292 461.525,116.614 466.000,122.431" stroke-width="4.894" stroke="black" fill="none" stroke-linecap="round"></path><path d="M 466.000,122.431 C 471.525,129.614 469.947,130.850 475.000,138.431" stroke-width="3.395" stroke="black" fill="none" stroke-linecap="round"></path><path d="M 475.000,138.431 C 476.947,141.350 479.179,145.541 480.000,143.431" stroke-width="3.780" stroke="black" fill="none" stroke-linecap="round"></path><path d="M 480.000,143.431 C 482.679,136.541 481.732,131.944 482.000,120.431" stroke-width="4.379" stroke="black" fill="none" stroke-linecap="round"></path><path d="M 482.000,120.431 C 482.232,110.444 481.345,110.434 481.000,100.431" stroke-width="2.868" stroke="black" fill="none" stroke-linecap="round"></path><path d="M 481.000,100.431 C 480.845,95.934 479.680,89.582 481.000,91.431" stroke-width="3.391" stroke="black" fill="none" stroke-linecap="round"></path><path d="M 481.000,91.431 C 484.680,96.582 485.794,103.023 491.000,114.431" stroke-width="4.251" stroke="black" fill="none" stroke-linecap="round"></path><path d="M 491.000,114.431 C 509.294,154.523 511.279,153.732 528.000,194.431" stroke-width="1.442" stroke="black" fill="none" stroke-linecap="round"></path><path d="M 528.000,194.431 C 537.779,218.232 538.044,218.557 544.000,243.431" stroke-width="1.409" stroke="black" fill="none" stroke-linecap="round"></path><path d="M 544.000,243.431 C 546.544,254.057 545.000,254.438 545.000,265.431" stroke-width="2.006" stroke="black" fill="none" stroke-linecap="round"></path><path d="M 545.000,265.431 C 545.000,271.938 545.725,272.270 544.000,278.431" stroke-width="2.664" stroke="black" fill="none" stroke-linecap="round"></path><path d="M 544.000,278.431 C 542.225,284.770 541.723,285.015 538.000,290.431" stroke-width="2.983" stroke="black" fill="none" stroke-linecap="round"></path><path d="M 538.000,290.431 C 536.223,293.015 535.973,293.539 533.000,294.431" stroke-width="3.639" stroke="black" fill="none" stroke-linecap="round"></path><path d="M 533.000,294.431 C 525.973,296.539 525.196,297.591 518.000,296.431" stroke-width="3.210" stroke="black" fill="none" stroke-linecap="round"></path><path d="M 518.000,296.431 C 509.696,295.091 509.052,294.419 502.000,289.431" stroke-width="2.827" stroke="black" fill="none" stroke-linecap="round"></path><path d="M 502.000,289.431 C 488.552,279.919 485.784,281.307 477.000,267.431" stroke-width="2.043" stroke="black" fill="none" stroke-linecap="round"></path><path d="M 477.000,267.431 C 451.284,226.807 450.728,225.407 433.000,180.431" stroke-width="1.125" stroke="black" fill="none" stroke-linecap="round"></path><path d="M 433.000,180.431 C 423.728,156.907 426.550,155.600 423.000,130.431" stroke-width="1.261" stroke="black" fill="none" stroke-linecap="round"></path><path d="M 423.000,130.431 C 421.050,116.600 420.785,116.286 422.000,102.431" stroke-width="1.723" stroke="black" fill="none" stroke-linecap="round"></path><path d="M 422.000,102.431 C 423.285,87.786 424.007,87.586 428.000,73.431" stroke-width="1.941" stroke="black" fill="none" stroke-linecap="round"></path><path d="M 428.000,73.431 C 429.507,68.086 429.712,67.815 433.000,63.431" stroke-width="2.771" stroke="black" fill="none" stroke-linecap="round"></path><path d="M 433.000,63.431 C 435.712,59.815 436.034,59.634 440.000,57.431" stroke-width="3.285" stroke="black" fill="none" stroke-linecap="round"></path><path d="M 440.000,57.431 C 445.034,54.634 445.395,54.832 451.000,53.431" stroke-width="3.317" stroke="black" fill="none" stroke-linecap="round"></path><path d="M 451.000,53.431 C 453.395,52.832 453.787,52.482 456.000,53.431" stroke-width="3.976" stroke="black" fill="none" stroke-linecap="round"></path><path d="M 456.000,53.431 C 460.787,55.482 461.124,55.716 465.000,59.431" stroke-width="3.521" stroke="black" fill="none" stroke-linecap="round"></path><path d="M 465.000,59.431 C 473.124,67.216 472.180,68.255 480.000,76.431" stroke-width="2.662" stroke="black" fill="none" stroke-linecap="round"></path><path d="M 480.000,76.431 C 483.180,79.755 483.145,80.058 487.000,82.431" stroke-width="3.283" stroke="black" fill="none" stroke-linecap="round"></path><path d="M 487.000,82.431 C 489.645,84.058 490.000,83.431 493.000,84.431" stroke-width="4.532" stroke="black" fill="none" stroke-linecap="round"></path><path d="M 493.000,84.431 C 497.500,85.931 497.416,86.448 502.000,87.431" stroke-width="4.476" stroke="black" fill="none" stroke-linecap="round"></path><path d="M 532.000,109.431 C 526.000,112.431 525.759,111.995 520.000,115.431" stroke-width="5.327" stroke="black" fill="none" stroke-linecap="round"></path><path d="M 520.000,115.431 C 468.759,145.995 468.400,145.491 418.000,177.431" stroke-width="1.250" stroke="black" fill="none" stroke-linecap="round"></path><path d="M 418.000,177.431 C 382.400,199.991 382.383,200.064 348.000,224.431" stroke-width="1.275" stroke="black" fill="none" stroke-linecap="round"></path><path d="M 348.000,224.431 C 318.883,245.064 319.729,246.240 291.000,267.431" stroke-width="1.125" stroke="black" fill="none" stroke-linecap="round"></path><path d="M 318.000,266.431 C 312.500,262.931 312.065,263.510 307.000,259.431" stroke-width="5.102" stroke="black" fill="none" stroke-linecap="round"></path><path d="M 307.000,259.431 C 294.065,249.010 294.761,248.115 282.000,237.431" stroke-width="2.342" stroke="black" fill="none" stroke-linecap="round"></path><path d="M 282.000,237.431 C 273.261,230.115 273.150,230.228 264.000,223.431" stroke-width="2.326" stroke="black" fill="none" stroke-linecap="round"></path><path d="M 264.000,223.431 C 255.650,217.228 255.283,217.714 247.000,211.431" stroke-width="2.465" stroke="black" fill="none" stroke-linecap="round"></path><path d="M 247.000,211.431 C 240.783,206.714 240.848,206.604 235.000,201.431" stroke-width="2.774" stroke="black" fill="none" stroke-linecap="round"></path><path d="M 235.000,201.431 C 227.848,195.104 227.407,195.447 221.000,188.431" stroke-width="2.685" stroke="black" fill="none" stroke-linecap="round"></path><path d="M 221.000,188.431 C 216.907,183.947 217.661,183.311 214.000,178.431" stroke-width="3.020" stroke="black" fill="none" stroke-linecap="round"></path><path d="M 214.000,178.431 C 208.661,171.311 208.195,171.646 203.000,164.431" stroke-width="2.824" stroke="black" fill="none" stroke-linecap="round"></path><path d="M 203.000,164.431 C 199.195,159.146 199.749,158.758 196.000,153.431" stroke-width="3.066" stroke="black" fill="none" stroke-linecap="round"></path><path d="M 196.000,153.431 C 190.249,145.258 189.841,145.543 184.000,137.431" stroke-width="2.647" stroke="black" fill="none" stroke-linecap="round"></path><path d="M 184.000,137.431 C 180.841,133.043 181.077,132.876 178.000,128.431" stroke-width="3.155" stroke="black" fill="none" stroke-linecap="round"></path><path d="M 261.000,262.431 C 255.000,263.431 255.000,263.431 249.000,264.431" stroke-width="5.291" stroke="black" fill="none" stroke-linecap="round"></path><path d="M 249.000,264.431 C 246.000,264.931 242.308,267.407 243.000,265.431" stroke-width="4.431" stroke="black" fill="none" stroke-linecap="round"></path><path d="M 243.000,265.431 C 245.808,257.407 248.767,254.376 256.000,244.431" stroke-width="4.574" stroke="black" fill="none" stroke-linecap="round"></path><path d="M 256.000,244.431 C 260.767,237.876 261.253,238.178 267.000,232.431" stroke-width="3.234" stroke="black" fill="none" stroke-linecap="round"></path><path d="M 267.000,232.431 C 270.753,228.678 272.443,225.750 275.000,225.431" stroke-width="3.390" stroke="black" fill="none" stroke-linecap="round"></path><path d="M 275.000,225.431 C 276.443,225.250 275.544,228.494 275.000,231.431" stroke-width="4.544" stroke="black" fill="none" stroke-linecap="round"></path><path d="M 275.000,231.431 C 273.044,241.994 273.098,242.104 270.000,252.431" stroke-width="2.790" stroke="black" fill="none" stroke-linecap="round"></path><path d="M 270.000,252.431 C 265.598,267.104 264.590,266.826 260.000,281.431" stroke-width="2.191" stroke="black" fill="none" stroke-linecap="round"></path><path d="M 260.000,281.431 C 259.090,284.326 257.905,285.022 259.000,287.431" stroke-width="3.320" stroke="black" fill="none" stroke-linecap="round"></path><path d="M 259.000,287.431 C 260.405,290.522 261.556,290.954 265.000,292.431" stroke-width="4.352" stroke="black" fill="none" stroke-linecap="round"></path><path d="M 265.000,292.431 C 268.556,293.954 269.013,293.726 273.000,293.431" stroke-width="4.252" stroke="black" fill="none" stroke-linecap="round"></path><path d="M 273.000,293.431 C 282.513,292.726 282.654,292.640 292.000,290.431" stroke-width="2.902" stroke="black" fill="none" stroke-linecap="round"></path><path d="M 292.000,290.431 C 310.154,286.140 310.665,287.184 328.000,280.431" stroke-width="2.116" stroke="black" fill="none" stroke-linecap="round"></path></svg>